<svg xmlns="http://www.w3.org/2000/svg" viewBox="0 0 1080 1080">
	<defs>
		<style>
			.cls-1 {
				fill: #1d1d1b;
				stroke: #1d1d1b;
				stroke-miterlimit: 10;
				stroke-width: 0.5px;
			}

			.cls-2 {
				font-size: 210.56px;
				fill: #fff;
				font-family: Gotham-Bold, Gotham;
				font-weight: 700;
			}
		</style>
	</defs>
	<path class="cls-1" d="M423.13,751.6a65.05,65.05,0,1,0,65.05,65A65.05,65.05,0,0,0,423.13,751.6Zm0,101.19a36.14,36.14,0,1,1,36.14-36.14A36.14,36.14,0,0,1,423.13,852.79Z" />
	<path class="cls-1" d="M697.8,751.6a65.05,65.05,0,1,0,65.05,65A65,65,0,0,0,697.8,751.6Zm0,101.19a36.14,36.14,0,1,1,36.14-36.14A36.14,36.14,0,0,1,697.8,852.79Z" />
	<path class="cls-1" d="M844.53,372.11A18.13,18.13,0,0,0,833,366.33l-470.56-6.5-13-39.76a66.48,66.48,0,0,0-62.16-44.81H238.81a14.46,14.46,0,1,0,0,28.91h48.43a37.6,37.6,0,0,1,34.69,25.3l91.8,276.84-7.23,16.62A69.39,69.39,0,0,0,413,685.82a67.24,67.24,0,0,0,54.21,30.36H748.4a14.46,14.46,0,1,0,0-28.91H467.22a36.87,36.87,0,0,1-30.36-17.35,39.73,39.73,0,0,1-3.61-34.7l5.78-13,304.31-31.8A79.54,79.54,0,0,0,812,529.69L846.7,384.4A12.27,12.27,0,0,0,844.53,372.11ZM783.82,523.18a49.15,49.15,0,0,1-44.1,38.31L439,592.58,371.81,388.74l443.09,6.5Z" />
	<circle class="cls-1" cx="762.85" cy="292.8" r="182.3" /><text class="cls-2 snipcart-items-count" transform="translate(700.43 363.88)"></text>
</svg>